<svg id="Calque_1" data-name="Calque 1" xmlns="http://www.w3.org/2000/svg" viewBox="0 0 286.24 66"><defs><style>.cls-1{fill:#787879;}.cls-2{fill:#4285f4;}.cls-3{fill:#34a853;}.cls-4{fill:#fbbc04;}.cls-5{fill:#ea4335;}.cls-6{fill:#c5221f;}</style></defs><path class="cls-1" d="M167.19,35c0,14.45-10.36,23.28-23.74,23.28A24.79,24.79,0,0,1,118.35,33a24.79,24.79,0,0,1,25.1-25.23c6.57,0,13.47,2.29,17.8,7.22l-4.45,4.45c-3.19-3.86-8.35-5.74-13.36-5.74-10.33,0-18.75,7.81-18.75,19.3s8.44,19.29,18.75,19.29C152.68,52.29,160,47,161,37.11H143.44v-5.8h23.41a20.23,20.23,0,0,1,.33,3.65Zm12.68,22.19h-6.2v-33h5.93v4.59h.27A12.59,12.59,0,0,1,190.06,23c5.16,0,8.89,2.66,10.45,6.34A12.93,12.93,0,0,1,211.92,23c8.08,0,11.94,5.35,11.94,13.49V57.14h-6.2V37.45c0-6.62-2.44-8.77-7.35-8.77-5.1,0-8.44,5-8.44,10.19V57.14h-6.19V37.45c0-6.63-2.45-8.77-7.36-8.77-5.09,0-8.43,5-8.43,10.19V57.14ZM243.34,23c8.91,0,14.84,4.93,14.84,13.76V57.14h-5.93V52.55H252a11.85,11.85,0,0,1-10.26,5.67c-6.93,0-12.81-4.51-12.81-11.34,0-7.63,6.62-11.19,14.23-11.19a18.34,18.34,0,0,1,9.11,2V36.29c0-4.45-4.09-7.76-8.57-7.76a9.56,9.56,0,0,0-8.24,4.39L230,29.48Q234.5,23,243.34,23Zm-8,24c0,3.46,3.44,5.66,6.89,5.66,5.07,0,10.05-4.28,10.05-9.71q-2.91-2.29-8.1-2.29c-4.2,0-8.84,2.18-8.84,6.34Zm37.92-34.34a4.39,4.39,0,1,1-4.39-4.38,4.35,4.35,0,0,1,4.39,4.38ZM272,24.09V57.14h-6.2v-33ZM286.24,8.85V57.14h-6.19V8.85Z"/><path class="cls-2" d="M20,66V32L0,17V60a6,6,0,0,0,6,6Z"/><path class="cls-3" d="M68,66H82a6,6,0,0,0,6-6V17L68,32Z"/><path class="cls-4" d="M68,6V32L88,17V9a9,9,0,0,0-9-9A8.83,8.83,0,0,0,73.6,1.82Z"/><path class="cls-5" d="M20,32V6L44,24,68,6V32L44,50Z"/><path class="cls-6" d="M0,17,20,32V6l-5.6-4.2A9,9,0,0,0,0,9Z"/></svg>