<svg id="Layer_1" data-name="Layer 1" xmlns="http://www.w3.org/2000/svg" xmlns:xlink="http://www.w3.org/1999/xlink" viewBox="0 0 347.67 66"><defs><style>.cls-1{fill:#0072c6;}.cls-2,.cls-8{fill:#0a2767;}.cls-3{fill:#0364b8;}.cls-4{fill:#0078d4;}.cls-5{fill:#28a8ea;}.cls-6{fill:#14447d;}.cls-7{fill:url(#Dégradé_sans_nom_3);}.cls-10,.cls-11,.cls-12,.cls-8{isolation:isolate;}.cls-8{opacity:0.5;}.cls-9{fill:#1490df;}.cls-10{opacity:0.1;}.cls-11{opacity:0.05;}.cls-12{opacity:0.2;}.cls-13{fill:url(#Dégradé_sans_nom_2);}.cls-14{fill:#fff;}.cls-15{fill:#50d9ff;}</style><linearGradient id="Dégradé_sans_nom_3" x1="43.72" y1="-1638.68" x2="43.72" y2="-1607.33" gradientTransform="translate(0 1673.33)" gradientUnits="userSpaceOnUse"><stop offset="0" stop-color="#35b8f1"/><stop offset="1" stop-color="#28a8ea"/></linearGradient><linearGradient id="Dégradé_sans_nom_2" x1="6.31" y1="-1660.85" x2="29.99" y2="-1619.82" gradientTransform="translate(0 1673.33)" gradientUnits="userSpaceOnUse"><stop offset="0" stop-color="#1784d9"/><stop offset="0.5" stop-color="#107ad5"/><stop offset="1" stop-color="#0a63c9"/></linearGradient></defs><g id="g7"><path id="path9" class="cls-1" d="M118.73,60c-15.25,0-24.48-11.1-24.48-26.37C94.25,17.4,103.37,6,119.61,6c15.1,0,24,11.31,24,26.34C143.65,48.45,134.8,60,118.73,60Zm.44-48.45c-11.83,0-18.51,9.61-18.51,21.53s6.43,21.42,18.07,21.42c12.45,0,18.51-9,18.51-21.31S131.53,11.57,119.17,11.57Z"/><path id="path11" class="cls-1" d="M181.43,59.15h-6v-5.9h-.15A12.26,12.26,0,0,1,163.79,60q-13.33,0-13.33-15.88V21.84h5.94V43.19q0,11.81,9,11.8c6.3,0,10-5.2,10-11.65V21.84h6V59.15Z"/><path id="path13" class="cls-1" d="M208.93,58.78A11.51,11.51,0,0,1,203.35,60q-9.79,0-9.8-10.93V26.94h-6.41v-5.1h6.41V12.73l6-1.93v11h9.39v5.1h-9.39V48c0,4.4,1.12,7,5.5,7a6.29,6.29,0,0,0,3.9-1.24v5.1Z"/></g><g id="g29"><path id="path31" class="cls-1" d="M222.76,59.15h-6V3.92h6V59.15Z"/><path id="path33" class="cls-1" d="M248.59,60c-11.39,0-18.15-7.89-18.15-19.09,0-13,7.74-20,19-20,11.47,0,17.71,7.58,17.71,19.38C267.17,51.89,260.3,60,248.59,60ZM249,26c-8.32,0-12.45,6.3-12.45,14.72S241,55,249,55c8.41,0,12-6,12-14.43S257.41,26,249,26Z"/><path id="path35" class="cls-1" d="M290.44,60c-11.38,0-18.14-7.89-18.14-19.09,0-12.91,7.68-20,19-20S309,28.53,309,40.35,301.93,60,290.44,60Zm.44-34c-8.32,0-12.46,6.3-12.46,14.72S282.82,55,290.88,55c8.38,0,12-6,12-14.43S299.34,26,290.88,26Z"/><path id="path37" class="cls-1" d="M347.67,59.15h-8.38L322.82,41.22h-.15V59.15h-6V3.92h6v35h.15l15.66-17.09h7.84L329,39.84Z"/></g><path class="cls-2" d="M71,34.65a1.58,1.58,0,0,0-.76-1.36h0l0,0L45.57,18.72l-.33-.2a3.29,3.29,0,0,0-3,0,2.63,2.63,0,0,0-.33.2L17.3,33.27l0,0a1.6,1.6,0,0,0-.51,2.21,1.47,1.47,0,0,0,.55.53L41.89,50.59l.33.19a3.31,3.31,0,0,0,3,0l.33-.19L70.16,36A1.55,1.55,0,0,0,71,34.65Z"/><path class="cls-3" d="M20.17,24.93H36.3V39.72H20.17Zm47.48-15V3.13a3.06,3.06,0,0,0-3-3.13H22.79a3.06,3.06,0,0,0-3,3.13V9.9l24.75,6.6Z"/><path class="cls-4" d="M19.8,9.9H36.3V24.75H19.8Z"/><path class="cls-5" d="M52.8,9.9H36.3V24.75L52.8,39.6H67.65V24.75Z"/><path class="cls-4" d="M36.3,24.75H52.8V39.6H36.3Z"/><path class="cls-3" d="M36.3,39.6H52.8V54.45H36.3Z"/><path class="cls-6" d="M20.17,39.72H36.3V53.17H20.17Z"/><path class="cls-4" d="M52.8,39.6H67.65V54.45H52.8Z"/><path class="cls-7" d="M70.19,35.94l0,0L45.58,49.79l-.33.18a3.43,3.43,0,0,1-1.34.33l-1.34-.79c-.11,0-.22-.12-.33-.18L17.33,35.11h0l-.82-.46v28A3.38,3.38,0,0,0,19.9,66H67.68a4.61,4.61,0,0,0,1.16-.24,2.94,2.94,0,0,0,.46-.25l.3-.19A3.33,3.33,0,0,0,71,62.64v-28A1.47,1.47,0,0,1,70.19,35.94Z"/><path class="cls-8" d="M69.63,34.54v1.72L43.92,54,17.31,35.12l0,0h0l-2.44-1.47V32.39h1L18,33.6l.05,0,.19.11L43.3,48l1,.56.27-.1,24.83-14Z"/><path class="cls-9" d="M70.19,35.94l0,0L45.58,49.79c-.11.06-.22.13-.33.18a3.43,3.43,0,0,1-3,0c-.11,0-.22-.12-.33-.18L17.31,36l0,0a1.47,1.47,0,0,1-.78-1.29v28A3.38,3.38,0,0,0,19.9,66H67.55A3.38,3.38,0,0,0,71,62.64h0v-28A1.47,1.47,0,0,1,70.19,35.94Z"/><path class="cls-10" d="M45.94,49.58l-.37.21-.33.19a3.68,3.68,0,0,1-1.3.34l9.35,11.06,16.32,3.93a3.44,3.44,0,0,0,1-1.29Z"/><path class="cls-11" d="M47.6,48.65l-2,1.14-.33.19a3.68,3.68,0,0,1-1.3.34L48.32,62.4l21.3,2.91A3.33,3.33,0,0,0,71,62.64v-.36Z"/><path class="cls-5" d="M20,66H67.54a3.45,3.45,0,0,0,2-.66l-27-15.82-.33-.19L17.32,35.11h0l-.81-.46V62.54A3.45,3.45,0,0,0,20,66Z"/><path class="cls-10" d="M39.6,16.22v35.2a3,3,0,0,1-1.9,2.8,2.68,2.68,0,0,1-1.12.23H16.5V14.85h3.3V13.2H36.58A3,3,0,0,1,39.6,16.22Z"/><path class="cls-12" d="M38,17.87v35.2a2.68,2.68,0,0,1-.25,1.15,3,3,0,0,1-2.77,1.88H16.5V14.85H34.93a2.74,2.74,0,0,1,1.37.35A3,3,0,0,1,38,17.87Z"/><path class="cls-12" d="M38,17.87v31.9a3,3,0,0,1-3,3H16.5V14.85H34.93a2.74,2.74,0,0,1,1.37.35A3,3,0,0,1,38,17.87Z"/><path class="cls-12" d="M36.3,17.87v31.9a3,3,0,0,1-3,3H16.5V14.85H33.28a3,3,0,0,1,3,3Z"/><path class="cls-13" d="M3,14.85H33.28a3,3,0,0,1,3,3V48.13a3,3,0,0,1-3,3H3a3,3,0,0,1-3-3V17.87A3,3,0,0,1,3,14.85Z"/><path class="cls-14" d="M9.45,27.54a8.82,8.82,0,0,1,3.46-3.82,10.46,10.46,0,0,1,5.49-1.38,9.73,9.73,0,0,1,5.08,1.31,8.68,8.68,0,0,1,3.36,3.64A11.86,11.86,0,0,1,28,32.66a12.37,12.37,0,0,1-1.22,5.61A8.87,8.87,0,0,1,23.34,42a10.12,10.12,0,0,1-5.27,1.34,9.92,9.92,0,0,1-5.19-1.32,8.82,8.82,0,0,1-3.41-3.65,11.61,11.61,0,0,1-1.19-5.3A12.87,12.87,0,0,1,9.45,27.54Zm3.69,9A5.68,5.68,0,0,0,15.08,39a5.06,5.06,0,0,0,3,.91A5.35,5.35,0,0,0,21.36,39a5.48,5.48,0,0,0,1.88-2.52,9.7,9.7,0,0,0,.61-3.5,10.77,10.77,0,0,0-.57-3.55,5.54,5.54,0,0,0-1.83-2.61,5,5,0,0,0-3.21-1,5.21,5.21,0,0,0-3.11.92,5.79,5.79,0,0,0-2,2.53,10,10,0,0,0,0,7.24Z"/><path class="cls-15" d="M52.8,9.9H67.65V24.75H52.8Z"/></svg>